<?xml version="1.0" standalone="no"?>
<!DOCTYPE svg PUBLIC "-//W3C//DTD SVG 1.1//EN" "http://www.w3.org/Graphics/SVG/1.1/DTD/svg11.dtd">
<svg xmlns="http://www.w3.org/2000/svg" id="Layer_1" data-name="Layer 1" viewBox="0 0 1675.47 868.06" width="1675.469970703125" height="868.0599975585938">
  <defs>
    <style>
      .cls-1, .cls-2 {
        stroke-width: 0px;
      }

      .cls-2 {
        fill: #d31f26;
      }
    </style>
  </defs>
  <path class="cls-1" d="M405,811.5c.66,2.66,1,5.16,1,7.5s-.34,5.16-1,8.5c-.34,1.66-.67,3.16-1,4.5-.34,1.33-.84,2.83-1.5,4.5-1,2.66-2.5,5.33-4.5,8-.67,1.66-1.5,3-2.5,4l-3,3c-2.34,2.33-3.84,3.66-4.5,4-2.67,2.66-6.42,4.75-11.25,6.25-4.84,1.5-8.75,2.41-11.75,2.75-11.67,2-23,3-34,3-13.67.33-27-.67-40-3-13-2.34-25.25-6.17-36.75-11.5-11.5-5.34-22.25-12.42-32.25-21.25-10-8.84-19-19.59-27-32.25-6-9.67-11.42-19.59-16.25-29.75-4.84-10.17-9.59-20.34-14.25-30.5-4.67-10.17-9.5-20.34-14.5-30.5-5-10.17-10.67-19.92-17-29.25-7.34-10.66-16.17-20.75-26.5-30.25-10.34-9.5-21.67-18.08-34-25.75-1.34.34-3.34.5-6,.5-2.34,0-5.84-.5-10.5-1.5-4.67-1-9.34-2.91-14-5.75-4.67-2.83-9-7-13-12.5s-6.5-12.75-7.5-21.75c-1-8-.41-15.58,1.75-22.75,2.17-7.16,5.41-13.08,9.75-17.75,4.33-4.66,9.25-7.75,14.75-9.25s11.25-.75,17.25,2.25c7.33,4,13.75,6.34,19.25,7,5.5.67,10.25.25,14.25-1.25s7.41-3.91,10.25-7.25c2.83-3.33,5.08-7,6.75-11,4-9.33,6.16-21.14,6.5-35.43-.34-9.62-.84-19.57-1.5-29.85-.67-8.62-1.17-18.08-1.5-28.36-.34-10.28-.67-20.23-1-29.86H0v-65.5h251.5v65.5h-69.5v56h46.5v47h-46.5c-.34,8.34-1.59,17.17-3.75,26.5-2.17,9.34-5.67,18.67-10.5,28-4.84,9.34-11.09,18.25-18.75,26.75-7.67,8.5-17.17,16.09-28.5,22.75,12.66,5,24.83,10.84,36.5,17.5,11.66,6.67,22.66,14.5,33,23.5,17.33,15,31.33,31.58,42,49.75,10.66,18.16,20.66,37.58,30,58.25,4.66,10,9.41,19.91,14.25,29.75,4.83,9.83,10.25,19.41,16.25,28.75,2.66,4.66,5.66,9.08,9,13.25,3.33,4.16,6.83,8.08,10.5,11.75,7.66,8.66,16.41,15.25,26.25,19.75,9.83,4.5,22.08,4.75,36.75.75,3.33-1.34,5.66-2.34,7-3,1.33-.67,2.5-1.34,3.5-2,1-.67,2-1.5,3-2.5,2-1.34,3.66-3,5-5,2.33-2.34,3.83-4.17,4.5-5.5.66-1,1.25-2.09,1.75-3.25.5-1.17.91-2.25,1.25-3.25.66-1.67,1.33-3.84,2-6.5.66-2.67,1-4.84,1-6.5v-6.5c-.34-.67-.5-1.5-.5-2.5s-.17-2-.5-3c-1-3.67-2.34-6.84-4-9.5-1.34-2.67-3.17-5.17-5.5-7.5-1-1.34-2-2.42-3-3.25-1-.84-2-1.59-3-2.25-4.67-3-8-4.67-10-5-2.67-1-4.17-1.5-4.5-1.5-.67-.34-.5-.42.5-.25,1,.16,2.5.58,4.5,1.25,2.66.66,5.66,2,9,4,1.33,1,3.33,2.5,6,4.5,2,2.33,4.33,5.16,7,8.5l3,6c.66,1.33,1.33,3.66,2,7Z"/>
  <path class="cls-1" d="M312.5,660.5c0,3.67-2.67,6.42-8,8.25-5.34,1.84-10,1.92-14,.25-2.67-.66-6.09-3-10.25-7-4.17-4-8.75-8.16-13.75-12.5-7-6.33-14-12.66-21-19-7-6.33-12-11.16-15-14.5-.67-1-1.17-2.41-1.5-4.25-.34-1.83-.5-3.08-.5-3.75v-209h-20v-65.5h119v65.5h-34v229c-.34.67-.5,1.09-.5,1.25s-.17.59-.5,1.25c-.34.67-.67,1.25-1,1.75-.34.5-.84,1.09-1.5,1.75-.67,1.34-1.34,3-2,5-.67,2-1,3.5-1,4.5,0,2,.16,3.5.5,4.5,0,.67.33,2,1,4l1.5,3c.66.67,1.08,1.17,1.25,1.5.16.34.58.67,1.25,1,1.66,2,3.33,3.17,5,3.5,2.66.67,4.33,1,5,1,1.66,0,2.83-.16,3.5-.5,2-.66,3.58-1.25,4.75-1.75,1.16-.5,1.75-.25,1.75.75Z"/>
  <path class="cls-2" d="M304.49,59.5c9.34,22.67,11.84,44.42,7.5,65.25-4.33,20.84-13.16,40.42-26.5,58.75-1,1.34-2,2.59-3,3.75-1,1.17-2,2.59-3,4.25l-12,13.5c-1.66,1.67-4.08,3.75-7.25,6.25-3.16,2.5-6.41,4.09-9.75,4.75-.33.34-.91.5-1.75.5s-1.75.17-2.75.5c-1.66.34-4.16.5-7.5.5h-4c-1.33,0-2.66-.16-4-.5-1-.66-2.08-1.08-3.25-1.25-1.16-.16-2.41-.58-3.75-1.25-2.66-1.33-4.66-2.5-6-3.5-.66-.66-1.5-1.41-2.5-2.25-1-.83-1.83-1.58-2.5-2.25s-1.25-1.41-1.75-2.25c-.5-.83-1.08-1.58-1.75-2.25-1-1.66-1.83-3.33-2.5-5-.66-1.66-1.16-3.25-1.5-4.75-.33-1.5-.66-2.91-1-4.25v-.5c-5-9-10-18.83-15-29.5-4.66-11.33-7.58-22.5-8.75-33.5-1.16-11-.75-21.66,1.25-32,2-10.33,5.25-20.33,9.75-30,4.5-9.66,10.09-19,16.75-28,1-1.66,2-3.08,3-4.25,1-1.16,2-2.41,3-3.75,1.67-2.66,3.59-5.08,5.75-7.25,2.17-2.16,4.25-4.41,6.25-6.75,1.67-1.66,4.09-3.75,7.25-6.25,3.17-2.5,6.42-4.08,9.75-4.75.34,0,1.84-.33,4.5-1,1.67-.33,4.17-.5,7.5-.5,1.67,0,4.17.34,7.5,1,3.34.67,5.67,1.34,7,2,1.34.67,2.5,1.34,3.5,2,1,.67,1.84,1.34,2.5,2h.5c1,.67,2.5,2,4.5,4s3.34,3.67,4,5c1.34,2,2.17,3.5,2.5,4.5.67,1.67,1.17,3.25,1.5,4.75.34,1.5.5,2.92.5,4.25.34,0,.5.17.5.5,5,9,10,18.84,15,29.5ZM212.49,204.5l1.5,1.5,1.5,1.5c-1.66-3-3.33-5.91-5-8.75-1.66-2.83-3.33-5.75-5-8.75.34,1,.67,2.09,1,3.25.34,1.17.84,2.42,1.5,3.75,1,2.67,2.5,5.17,4.5,7.5ZM275.99,182.5c1-4,1.34-8.16,1-12.5-.33-4.33-1-8.66-2-13-1-4.33-2.08-8.58-3.25-12.75-1.16-4.16-2.58-8.25-4.25-12.25-3.66-8.66-7.58-16.91-11.75-24.75-4.16-7.83-8.58-15.75-13.25-23.75-4.66-8-9.16-16-13.5-24-4.33-8-8.16-16.16-11.5-24.5-1,4.34-1.33,8.59-1,12.75.34,4.17,1,8.42,2,12.75,1.67,8.67,4.17,17,7.5,25,3.67,8.67,7.5,17,11.5,25s8.34,15.84,13,23.5c10.34,16.34,18.84,32.5,25.5,48.5ZM277.99,10.5c1.67,2.67,3.34,5.5,5,8.5,1.67,3,3.34,5.84,5,8.5-.33-1.33-1.16-3.66-2.5-7-.66-1.33-1.41-2.58-2.25-3.75-.83-1.16-1.58-2.25-2.25-3.25l-3-3Z"/>
  <path class="cls-1" d="M573.99,399h-64.5c3.66,5.67,7.25,11.34,10.75,17,3.5,5.67,6.75,11.67,9.75,18,4.33,8.67,7.83,17.75,10.5,27.25,2.66,9.5,4.33,19.09,5,28.75,1,10.34,1.08,20.59.25,30.75-.84,10.17-2.59,20.25-5.25,30.25-1.34,5.67-2.92,11.09-4.75,16.25-1.84,5.17-3.75,10.42-5.75,15.75-2.34,5.67-4.67,11.25-7,16.75-2.34,5.5-5,10.59-8,15.25-6.34,9.67-14.17,18.25-23.5,25.75-9.34,7.5-19.67,12.59-31,15.25-17.34,4-33.84,4.5-49.5,1.5-15.67-3-29.5-9-41.5-18s-21.84-20.66-29.5-35c-7.67-14.33-12.16-31-13.5-50-1-14.66.75-28.91,5.25-42.75,4.5-13.83,12.41-25.41,23.75-34.75,6.66-5.66,13.83-10,21.5-13,7.66-3,15.66-5,24-6,11-1.33,21.91-.91,32.75,1.25,10.83,2.17,21.58,5.09,32.25,8.75,2.33.67,4.58,1.67,6.75,3,2.16,1.34,4.41,2.67,6.75,4,.66-4,1-8.08,1-12.25v-12.25c-.67-9-1.92-17.83-3.75-26.5-1.84-8.66-4.25-17-7.25-25h-168.5v-65.5h273v65.5ZM459.99,541.5c4.66-11,8.66-21.66,12-32-2.67.34-5.34.59-8,.75-2.67.17-5.34.59-8,1.25-9.34,2-18.34,5.67-27,11-12,7.67-21.34,18-28,31-6.67,13-9.84,26.67-9.5,41,0,1.67.08,3.42.25,5.25.16,1.84.41,3.59.75,5.25.66,0,1.08-.08,1.25-.25s.58-.25,1.25-.25c9.66-2.33,18.58-6.41,26.75-12.25,8.16-5.83,15.25-12.58,21.25-20.25,3.66-4.66,6.83-9.5,9.5-14.5,2.66-5,5.16-10.33,7.5-16Z"/>
  <path class="cls-1" d="M658.99,660.5c0,3.67-2.67,6.42-8,8.25-5.34,1.84-10,1.92-14,.25-2.67-.66-6.09-3-10.25-7-4.17-4-8.75-8.16-13.75-12.5-7-6.33-14-12.66-21-19-7-6.33-12-11.16-15-14.5-.67-1-1.17-2.41-1.5-4.25-.34-1.83-.5-3.08-.5-3.75v-209h-20v-65.5h119v65.5h-34v229c-.34.67-.5,1.09-.5,1.25s-.17.59-.5,1.25c-.34.67-.67,1.25-1,1.75-.34.5-.84,1.09-1.5,1.75-.67,1.34-1.34,3-2,5-.67,2-1,3.5-1,4.5,0,2,.16,3.5.5,4.5,0,.67.33,2,1,4l1.5,3c.66.67,1.08,1.17,1.25,1.5.16.34.58.67,1.25,1,1.66,2,3.33,3.17,5,3.5,2.66.67,4.33,1,5,1,1.66,0,2.83-.16,3.5-.5,2-.66,3.58-1.25,4.75-1.75,1.16-.5,1.75-.25,1.75.75Z"/>
  <path class="cls-1" d="M1054.48,812c.66,2.66,1,5.16,1,7.5s-.34,5.16-1,8.5c-.34,1.66-.67,3.16-1,4.5-.34,1.33-.84,2.83-1.5,4.5-1,2.66-2.5,5.33-4.5,8-.67,1.66-1.5,3-2.5,4l-3,3c-2.34,2.33-3.84,3.66-4.5,4-2.67,2.66-6.42,4.75-11.25,6.25-4.84,1.5-8.75,2.41-11.75,2.75-11.67,2-23,3-34,3-13.67.33-27-.67-40-3-13-2.34-25.34-6.17-37-11.5-11.67-5.34-22.5-12.42-32.5-21.25-10-8.84-18.84-19.59-26.5-32.25-6-9.67-11.42-19.59-16.25-29.75-4.84-10.17-9.59-20.34-14.25-30.5-4.67-10.17-9.5-20.34-14.5-30.5-5-10.17-10.67-19.92-17-29.25-7.34-10.66-16.17-20.75-26.5-30.25-10.34-9.5-21.67-18.08-34-25.75-1.34.34-3.34.5-6,.5-2.34,0-5.84-.5-10.5-1.5-4.67-1-9.34-2.91-14-5.75-4.67-2.83-9-7-13-12.5s-6.5-12.75-7.5-21.75c0-.66-.16-1.16-.5-1.5-.66-11.33,1-20.83,5-28.5,4-8.33,9.58-14.41,16.75-18.25,7.16-3.83,14.58-3.58,22.25.75,9,3.67,16.33,4.75,22,3.25,5.66-1.5,10.25-4.41,13.75-8.75,3.5-4.33,6.08-9.25,7.75-14.75,1.66-5.5,2.83-10.25,3.5-14.25,0-1.33.08-2.58.25-3.75.16-1.16.25-2.08.25-2.75v-29c0-6.66-.09-13.75-.25-21.25-.17-7.5-.25-15.16-.25-23v-22.25h-112v-65.5h317v65.5h-132v99.5c0,8.34-1.17,17.34-3.5,27-2.34,9.67-6,19.34-11,29-5,9.67-11.59,19-19.75,28-8.17,9-18.09,17-29.75,24,12.66,5,24.75,10.84,36.25,17.5,11.5,6.67,22.41,14.5,32.75,23.5,17.33,15,31.33,31.58,42,49.75,10.66,18.16,20.66,37.58,30,58.25,4.66,10,9.41,19.91,14.25,29.75,4.83,9.83,10.25,19.41,16.25,28.75,2.66,4.66,5.66,9.08,9,13.25,3.33,4.16,6.83,8.08,10.5,11.75,7.66,8.66,16.41,15.25,26.25,19.75,9.83,4.5,22.08,4.75,36.75.75,3.33-1.34,5.66-2.34,7-3,1.33-.67,2.5-1.34,3.5-2,1-.67,2-1.5,3-2.5,2-1.34,3.66-3,5-5,2.33-2.34,3.83-4.17,4.5-5.5.66-1,1.25-2.09,1.75-3.25.5-1.17.91-2.25,1.25-3.25.66-1.67,1.33-3.84,2-6.5.66-2.67,1-4.84,1-6.5v-6.5c-.34-.67-.5-1.5-.5-2.5s-.17-2-.5-3c-1-3.67-2.34-6.84-4-9.5-1.34-2.67-3.17-5.17-5.5-7.5-1-1.34-2-2.42-3-3.25-1-.84-2-1.59-3-2.25-4.67-3-8-4.67-10-5-2.67-1-4.17-1.5-4.5-1.5-.67-.34-.5-.42.5-.25,1,.16,2.5.58,4.5,1.25,2.66.66,5.5,2,8.5,4,2,1,4,2.5,6,4.5,2.33,1.66,4.83,4.5,7.5,8.5l3,6c.66,1.33,1.33,3.66,2,7Z"/>
  <path class="cls-1" d="M1168.98,399h-292v-65.5h292v65.5ZM1171.98,616c-16,7.67-32.34,12-49,13-6.34.34-13.34,0-21-1-10.34-1.33-20.5-4.66-30.5-10-5.67-3-11.25-6.33-16.75-10-5.5-3.66-10.75-7.5-15.75-11.5-5.34-4.33-10.5-8.66-15.5-13-5-4.33-9.5-9-13.5-14-4.34-4.66-8.09-9.66-11.25-15-3.17-5.33-5.59-11.16-7.25-17.5,0-.33-.09-.58-.25-.75-.17-.16-.25-.41-.25-.75-14-2-27.42-6.33-40.25-13-12.84-6.66-24.92-14.83-36.25-24.5-4-3.66-7.84-7.33-11.5-11-3.67-3.66-7.34-7.33-11-11-2-2.33-4.17-5.33-6.5-9-2.33-3.66-3.83-7.33-4.5-11,0-.66-.08-1.41-.25-2.25-.16-.83-.25-1.91-.25-3.25-.33-2.33-.33-5,0-8,0-3,.5-5.83,1.5-8.5.67-1.33,1.25-2.58,1.75-3.75.5-1.16,1.08-2.41,1.75-3.75,1-2.33,2.5-4.5,4.5-6.5.66-1,1.5-1.91,2.5-2.75,1-.83,1.83-1.58,2.5-2.25,1-.66,2-1.25,3-1.75s1.83-1.08,2.5-1.75c2.66-1.33,4.5-2.16,5.5-2.5,2-.66,3.83-1.16,5.5-1.5,1.66-.33,3.16-.5,4.5-.5,3.66,0,6,.17,7,.5,2,.34,3.66.67,5,1,1.33.34,2.5.67,3.5,1,1.66,1,3,1.75,4,2.25s1.16.59.5.25c-1-.33-2.5-.83-4.5-1.5-2.34-1.33-5.67-2.16-10-2.5h-3.25c-1.17,0-2.42.17-3.75.5-1.34,0-2.67.17-4,.5-1.34.34-2.84.84-4.5,1.5-2.34.67-5.17,2.17-8.5,4.5-.67.67-1.34,1.25-2,1.75-.67.5-1.34,1.09-2,1.75s-1.25,1.34-1.75,2c-.5.67-1.09,1.5-1.75,2.5-1.34,1.34-2.5,3-3.5,5-.67,1-1.09,1.92-1.25,2.75-.17.84-.59,1.75-1.25,2.75-.66,2.67-1,4.84-1,6.5-.33,1.34-.5,3.5-.5,6.5,0,1.67.34,3.84,1,6.5,0,1.34.17,2.5.5,3.5.34,1,.66,2.17,1,3.5,1.33,2.67,2.5,4.67,3.5,6,7.66,11.34,16.25,18.34,25.75,21,9.5,2.67,19.58,3.17,30.25,1.5,4.66-.66,9.41-1.41,14.25-2.25,4.83-.83,9.58-2.08,14.25-3.75,7.66-2.66,15.91-5.66,24.75-9,8.83-3.33,17.41-6.83,25.75-10.5,1.66-.66,3.33-1.41,5-2.25,1.66-.83,3.33-1.58,5-2.25l.5-.5c4.66-1.66,9.41-3.08,14.25-4.25,4.83-1.16,9.58-2.25,14.25-3.25,1.66.67,3.25,1.34,4.75,2,1.5.67,3.08,1.34,4.75,2,2,1.67,4.16,3,6.5,4,4.33,2.67,8.41,5.5,12.25,8.5,3.83,3,7.58,6.17,11.25,9.5.33,0,.66.17,1,.5,1.66,1.67,3.33,3.17,5,4.5,1.66,1.34,3.33,2.84,5,4.5,1.66,1.67,3.5,3.84,5.5,6.5,1.66,1.67,2.33,3.5,2,5.5-.34.34-1,.5-2,.5-.67,0-4.59.59-11.75,1.75-7.17,1.17-15,4-23.5,8.5s-16.17,11.42-23,20.75c-6.84,9.34-10.25,22.34-10.25,39,0,5,1.25,8.42,3.75,10.25,2.5,1.84,5.58,2.84,9.25,3,3.66.17,7.33-.16,11-1,3.66-.83,6.83-1.58,9.5-2.25,3.33-.66,6-1.33,8-2,16.33-4.66,31-11.91,44-21.75,13-9.83,24.16-21.58,33.5-35.25v88.5c0,1,.25,2.34.75,4,.5,1.67,1.08,3,1.75,4h.5Z"/>
  <path class="cls-1" d="M1251.48,660.5c0,3.67-2.67,6.42-8,8.25-5.34,1.84-10,1.92-14,.25-2.67-.66-6.09-3-10.25-7-4.17-4-8.75-8.16-13.75-12.5-7-6.33-14-12.66-21-19-7-6.33-12-11.16-15-14.5-.67-1-1.17-2.41-1.5-4.25-.34-1.83-.5-3.08-.5-3.75v-209h-20v-65.5h119v65.5h-34v229c-.34.67-.5,1.09-.5,1.25s-.17.59-.5,1.25c-.34.67-.67,1.25-1,1.75-.34.5-.84,1.09-1.5,1.75-.67,1.34-1.34,3-2,5-.67,2-1,3.5-1,4.5,0,2,.16,3.5.5,4.5,0,.67.33,2,1,4l1.5,3c.66.67,1.08,1.17,1.25,1.5.16.34.58.67,1.25,1,1.66,2,3.33,3.17,5,3.5,2.66.67,4.33,1,5,1,1.66,0,2.83-.16,3.5-.5,2-.66,3.58-1.25,4.75-1.75,1.16-.5,1.75-.25,1.75.75Z"/>
  <path class="cls-1" d="M1480.47,333.5v65.5h-242.5v-65.5h242.5ZM1378.97,432.5c14,2.34,27.83,4.17,41.5,5.5,13.66,1.34,27.5.67,41.5-2,3-.66,5.91-1.41,8.75-2.25,2.83-.83,5.58-1.75,8.25-2.75v59.5c-2.34-.33-4.67-.58-7-.75-2.34-.16-4.67-.41-7-.75-7-1-13.92-2.08-20.75-3.25-6.84-1.16-13.75-2.25-20.75-3.25-10.34-1.33-20.67-1.33-31,0l12,10.5c3,2.67,6,5.67,9,9,3,3.34,5.83,6.84,8.5,10.5,2.66,3.67,4.83,7.59,6.5,11.75,1.66,4.17,2.83,8.59,3.5,13.25.66,8.67,0,17.09-2,25.25-2,8.17-5.34,15.92-10,23.25-5.34,8.67-12,15.84-20,21.5-8,5.67-17,9.34-27,11-8,1.34-15.42.5-22.25-2.5-6.84-3-13.59-6.5-20.25-10.5-5.34-3.33-10.5-6.91-15.5-10.75-5-3.83-9.84-7.75-14.5-11.75-6.67-5.66-12.34-11-17-16-6-6.33-10.5-12.66-13.5-19-5-9.66-7.58-19.91-7.75-30.75-.16-10.83,1.42-21.25,4.75-31.25,3.33-10.33,8.41-19.75,15.25-28.25,6.83-8.5,15.08-15.08,24.75-19.75,10.33-5,21.16-8,32.5-9,6.66-.66,13.25-.5,19.75.5s13.08,2,19.75,3ZM1328.47,560c11.66-6.66,20.91-16.16,27.75-28.5,6.83-12.33,10.25-25,10.25-38v-.5c-8.67,5-15.67,11.5-21,19.5-10.34,14-16,29.84-17,47.5Z"/>
  <path class="cls-1" d="M1560.97,660.5c0,3.67-2.67,6.42-8,8.25-5.34,1.84-10,1.92-14,.25-2.67-.66-6.09-3-10.25-7-4.17-4-8.75-8.16-13.75-12.5-7-6.33-14-12.66-21-19-7-6.33-12-11.16-15-14.5-.67-1-1.17-2.41-1.5-4.25-.34-1.83-.5-3.08-.5-3.75v-209h-20v-65.5h119v65.5h-34v229c-.34.67-.5,1.09-.5,1.25s-.17.59-.5,1.25c-.34.67-.67,1.25-1,1.75-.34.5-.84,1.09-1.5,1.75-.67,1.34-1.34,3-2,5-.67,2-1,3.5-1,4.5,0,2,.16,3.5.5,4.5,0,.67.33,2,1,4l1.5,3c.66.67,1.08,1.17,1.25,1.5.16.34.58.67,1.25,1,1.66,2,3.33,3.17,5,3.5,2.66.67,4.33,1,5,1,1.66,0,2.83-.16,3.5-.5,2-.66,3.58-1.25,4.75-1.75,1.16-.5,1.75-.25,1.75.75Z"/>
  <path class="cls-1" d="M1660.47,660.5c0,3.67-2.67,6.42-8,8.25-5.34,1.84-10,1.92-14,.25-2.67-.66-6.09-3-10.25-7-4.17-4-8.75-8.16-13.75-12.5-7-6.33-14-12.66-21-19-7-6.33-12-11.16-15-14.5-.67-1-1.17-2.41-1.5-4.25-.34-1.83-.5-3.08-.5-3.75v-209h-20v-65.5h119v65.5h-34v229c-.34.67-.5,1.09-.5,1.25s-.17.59-.5,1.25c-.34.67-.67,1.25-1,1.75-.34.5-.84,1.09-1.5,1.75-.67,1.34-1.34,3-2,5-.67,2-1,3.5-1,4.5,0,2,.16,3.5.5,4.5,0,.67.33,2,1,4l1.5,3c.66.67,1.08,1.17,1.25,1.5.16.34.58.67,1.25,1,1.66,2,3.33,3.17,5,3.5,2.66.67,4.33,1,5,1,1.66,0,2.83-.16,3.5-.5,2-.66,3.58-1.25,4.75-1.75,1.16-.5,1.75-.25,1.75.75Z"/>
</svg>